<svg xmlns="http://www.w3.org/2000/svg" xmlns:xlink="http://www.w3.org/1999/xlink" version="1.1" id="Layer_1" x="0px" y="0px" width="100%" viewBox="0 0 1024 1024" enable-background="new 0 0 1024 1024" xml:space="preserve">
<path fill="#000000" opacity="1.000000" stroke="none" d=" M382.766327,552.625244   C384.322723,543.352600 388.909393,536.787537 396.618530,531.875427   C403.606506,527.422852 403.293152,527.029907 401.050659,518.783997   C400.004730,514.938110 398.918304,511.112976 398.334381,507.126648   C397.688538,502.717560 399.399475,500.262329 403.275116,498.516693   C407.852875,496.454773 412.533112,495.190369 416.606537,491.347900   C423.712708,484.644501 435.674927,486.827972 441.345703,494.322357   C444.713013,498.772491 445.113678,503.014343 441.771057,507.566193   C440.693878,509.032990 439.795197,510.630829 438.843964,512.701294   C444.627228,506.699615 449.468018,509.689789 454.332306,513.647827   C456.968536,515.792847 464.319061,514.127563 466.635498,511.164215   C475.980164,499.209656 477.501678,485.767395 474.275787,471.414154   C472.852814,465.082733 471.050995,459.026337 467.656311,453.256531   C455.805450,433.114319 440.496399,415.825134 424.464935,399.061310   C421.629242,396.096069 421.739441,395.990662 422.301910,392.018707   C439.053619,400.083954 453.963623,409.711060 461.745178,427.285156   C474.643036,422.997192 487.813202,423.976166 500.041351,419.886993   C502.818817,418.958252 513.103699,407.669678 512.351257,405.248230   C510.204742,398.340546 510.547943,390.888763 506.890015,384.277405   C499.145447,370.279694 488.823120,358.865387 475.349945,350.202576   C470.742218,347.239990 466.499268,343.708008 462.108307,340.411316   C460.377991,339.112213 458.676666,337.793945 456.109955,337.754486   C453.071106,345.714539 447.556885,343.642303 441.594635,340.477631   C446.138580,347.521576 448.683502,354.617889 449.914459,362.212067   C451.496765,371.973663 442.643097,382.565765 432.774872,382.755890   C430.801636,382.793884 429.292633,381.760620 427.712341,380.853821   C425.698578,379.698395 423.827667,378.187775 421.361420,378.128906   C417.251312,378.030853 416.216888,376.267792 418.426453,372.765228   C420.766235,369.056213 421.450470,364.788574 422.040222,360.481628   C425.798889,360.235840 427.839478,362.278076 429.730591,364.273315   C431.560852,366.204437 433.642822,366.455841 435.548981,365.145233   C437.661133,363.693085 436.716278,361.500671 435.656342,359.776489   C434.531616,357.946960 433.180389,356.233551 431.766937,354.609650   C429.028259,351.463257 426.268219,348.331757 424.202850,344.691071   C420.478912,338.126801 421.295197,334.581329 427.388763,330.236908   C433.359375,325.980072 433.339905,325.770844 427.205933,322.112701   C426.080231,321.441437 424.819000,320.694397 424.124817,319.647736   C412.411499,301.986450 404.335968,283.326691 408.787354,261.414062   C409.211090,259.327972 410.103241,257.337036 410.783966,255.283829   C405.386322,254.768646 404.273895,250.575806 403.738464,246.557495   C403.028961,241.232788 403.683685,235.975708 401.094940,230.644531   C398.744598,225.804230 405.706818,218.590103 411.157349,219.163025   C413.621613,219.422058 414.941345,221.036240 415.724609,223.227707   C416.347015,224.969040 417.388855,226.490738 419.381134,225.330643   C425.550262,221.738312 431.014801,217.284576 435.811371,211.484970   C431.814117,209.029800 428.252106,209.967880 424.765381,210.835892   C420.911774,211.795303 420.387207,209.856384 420.936310,206.784897   C420.965515,206.621597 420.980713,206.429810 421.075348,206.307922   C429.419586,195.561890 435.268951,182.028122 450.951782,179.463638   C453.927032,178.977127 457.428986,177.131088 459.012268,181.544739   C460.537354,185.796280 459.053223,188.626328 454.486481,189.672409   C453.939453,189.797729 453.523499,190.495483 453.123657,190.858215   C453.193176,191.381638 453.139984,191.926910 453.292236,191.992035   C461.591888,195.543152 472.766541,195.191162 474.352386,184.706161   C474.551208,183.391541 474.562714,181.990112 475.053925,180.789688   C476.289551,177.769943 478.034912,174.967545 481.696899,174.779190   C485.101227,174.604050 487.730164,176.283508 489.566650,179.203262   C490.167572,180.158722 490.033569,181.553223 491.424622,182.185883   C494.076813,181.397736 495.474487,179.001282 497.262970,177.121841   C499.281616,175.000473 501.252289,175.064209 503.404053,176.813583   C509.085083,181.432205 508.833282,188.061493 502.928009,192.306580   C500.165863,194.292206 496.941254,195.192764 493.949341,196.632431   C487.887756,199.549210 486.810364,206.748550 491.899719,211.294754   C495.167542,214.213821 499.104980,216.059586 503.250732,217.445175   C508.784760,219.294739 514.081970,221.698242 519.435059,224.014832   C537.637695,231.892227 545.023376,247.312454 548.900024,265.278381   C549.982178,270.293549 547.201294,274.612244 545.388733,279.536346   C551.397522,281.860809 554.778076,286.437775 557.177063,291.945770   C558.333618,294.601074 561.066406,295.442474 563.354797,296.764099   C564.604126,297.485565 566.459778,297.847290 566.263672,299.739380   C566.059570,301.709106 564.291809,302.396576 562.646057,302.667938   C559.742432,303.146729 557.879944,304.838898 555.642029,306.675323   C551.819580,309.811951 551.895264,312.032501 555.212524,315.069336   C555.895874,315.694946 556.212463,316.721252 556.950745,318.000763   C551.868103,320.836487 548.759094,314.707794 544.511230,315.602020   C540.951050,322.266876 540.951050,322.266876 534.805359,318.916199   C533.797119,318.690796 533.381775,319.489746 532.759766,320.021088   C530.245972,322.168579 527.265259,321.778015 524.833008,320.424133   C522.302307,319.015442 523.959412,316.552795 524.655518,314.608124   C525.323975,312.740479 525.027161,311.324097 524.050476,309.512024   C520.568542,303.051544 519.618713,296.293152 523.060242,289.420990   C525.425171,284.698669 528.891968,281.442535 534.358154,280.552124   C536.615906,280.184357 538.778259,279.231201 541.370972,278.423798   C540.457275,269.732452 537.179688,262.238464 532.482727,255.283157   C531.471924,253.786392 530.131348,253.215408 528.167419,253.910843   C524.604492,255.172501 521.729431,254.673813 520.189880,250.517120   C518.753967,246.640076 514.778259,245.952408 511.508423,245.646500   C507.983673,245.316772 508.962341,248.557312 509.661957,250.404602   C511.901855,256.319153 514.198792,262.237396 516.953369,267.921753   C518.483582,271.079315 519.161072,273.924774 516.974487,276.752960   C514.500610,279.952759 511.192566,281.832550 506.975159,281.199219   C502.628571,280.546478 500.431671,277.148224 501.417938,272.886963   C503.150452,265.401672 503.151917,265.394348 495.760956,263.928314   C494.678802,263.713654 493.855164,263.161804 493.605804,262.112640   C492.373718,256.928314 488.544922,257.331970 484.261047,257.623474   C486.303467,260.465668 486.322144,263.883209 489.579407,265.806152   C491.343536,266.847626 490.654266,269.231873 489.021973,270.987213   C485.593170,274.674530 481.567932,277.639282 477.703613,280.800201   C474.990326,283.019623 472.289032,285.231598 470.145508,288.042297   C469.213379,289.264587 468.126190,290.439148 466.415710,290.019928   C464.762573,289.614807 465.096375,287.958069 464.663239,286.752533   C463.331299,283.045258 462.707550,279.033447 460.106903,275.503479   C455.139130,277.894409 451.909912,283.146820 445.955505,283.488678   C439.530151,283.857605 436.574738,279.549011 434.148163,274.671936   C426.874207,278.528687 425.406006,281.427979 426.750427,288.701660   C427.446045,292.465057 428.206818,296.224640 428.687286,300.017731   C429.507050,306.489288 433.346466,310.536407 439.038788,312.910339   C452.234070,318.413269 463.892120,326.083008 474.530273,335.699615   C482.781494,343.158478 491.887878,349.625061 499.450470,357.933807   C504.171570,363.120728 509.357086,367.959686 512.551392,374.228577   C519.019165,386.921692 520.446533,400.208832 512.966675,412.779633   C506.942719,422.903564 496.235382,426.343719 485.137238,428.092346   C478.289307,429.171234 471.467865,430.913330 463.530670,428.988861   C468.426025,439.922607 472.682678,449.987335 477.404480,459.828857   C482.784332,471.041931 489.375488,481.599670 489.482178,494.821533   C489.591705,508.401550 483.296631,518.398315 473.792267,526.866760   C466.928406,532.982544 466.682312,532.737244 469.294037,541.325989   C469.970886,543.551880 470.796326,545.734924 471.617004,547.913757   C472.157471,549.348572 472.789093,550.956055 472.125000,552.286499   C466.562531,563.430786 465.121338,577.633423 449.488007,581.223328   C444.685089,582.326294 442.614380,586.706360 442.168549,591.981140   C441.174866,603.737793 437.856140,615.199097 437.534729,627.078674   C437.354858,633.728271 436.856506,640.383240 435.283997,646.889465   C434.707031,649.276794 433.992310,651.630798 433.122162,654.793396   C429.204712,649.695618 432.145355,643.805176 429.232666,638.876770   C425.983734,643.195801 423.051788,647.175171 420.031647,651.086487   C416.621002,655.503601 412.667786,659.206848 407.169891,660.987732   C404.575836,661.827942 401.172241,670.269348 402.166290,672.941956   C402.514130,673.877197 402.975403,674.769470 403.350159,675.695435   C404.055267,677.437500 404.721527,679.237366 402.973358,680.745972   C401.156799,682.313721 399.524323,681.233337 398.029785,680.118469   C395.760620,678.425720 393.618164,676.560425 391.321533,674.907837   C386.333557,671.318481 383.784454,672.000122 381.587280,677.596497   C379.017456,684.141968 375.420380,689.796204 368.886780,693.031555   C366.088226,694.417358 363.058868,695.202332 360.398102,693.062012   C357.574219,690.790466 357.659241,687.645569 358.611908,684.364075   C359.924591,679.842346 363.070679,676.631226 366.117432,673.328979   C368.460693,670.789246 371.239441,668.578918 372.409882,664.950745   C370.609283,662.659180 367.969086,662.833923 365.592010,662.610779   C363.263092,662.392151 360.942566,662.583557 359.174286,660.558716   C357.644745,658.807312 356.132904,660.374268 354.639130,660.813599   C350.027435,662.170105 346.571320,659.908325 344.627472,653.694885   C343.250336,649.292786 347.052002,648.284607 349.901093,647.343506   C354.630829,645.781006 359.503357,644.631592 364.604401,645.501404   C367.138733,645.933533 369.503723,644.970947 372.002289,644.309814   C372.002289,643.759033 372.201294,643.132935 371.973541,642.848083   C363.769775,632.586304 367.339325,622.857178 373.506317,613.447266   C376.877930,608.302734 380.725006,603.461487 384.490326,598.585938   C387.444855,594.760132 391.793121,593.534973 396.323883,592.853943   C398.755798,592.488342 401.249084,592.419861 403.888367,590.966370   C402.133728,589.854309 400.763702,590.692322 399.595856,591.190063   C394.299347,593.447876 390.481537,591.643494 387.872314,586.923767   C386.124176,583.761597 383.908264,583.579407 380.451721,583.900391   C354.293182,586.328979 328.200684,586.337280 302.615631,579.271545   C297.071472,577.740356 291.294312,576.198914 286.859497,572.133362   C281.954559,567.636902 282.503754,564.761292 288.660370,562.894470   C291.294891,562.095642 291.738586,560.925903 290.819641,558.538391   C290.258606,557.080688 289.078827,555.205750 290.883331,553.973694   C292.874207,552.614380 294.217133,554.564819 295.634552,555.598145   C300.613770,559.228149 305.509003,562.976990 310.552979,566.513977   C321.832581,574.423584 334.591034,575.945435 347.796936,574.279480   C356.381165,573.196533 364.654266,571.077515 370.791321,563.926086   C374.278687,559.862305 380.609283,558.731995 382.766327,552.625244  M416.209778,537.805664   C413.677338,539.250671 411.711517,541.202271 410.753265,544.019897   C410.118591,545.886108 408.940155,546.855774 406.978485,547.541504   C402.114716,549.241821 399.457886,558.599854 402.993622,562.252930   C405.121246,564.451172 405.172913,566.198547 404.532745,568.867188   C403.380615,573.670166 405.179230,575.914917 410.059540,575.596313   C417.317200,575.122742 424.018921,575.460754 427.913910,582.951599   C427.991913,583.101624 428.528809,583.013000 428.870819,583.036987   C430.523743,582.276794 430.920532,580.498352 431.926971,579.213928   C435.181702,575.060181 438.779388,571.203430 441.928986,566.928589   C443.733704,564.479126 446.163330,563.108826 444.856750,559.528931   C444.307159,558.023254 444.619720,556.268433 445.625580,554.750549   C448.881378,549.837341 447.416199,545.787842 441.735474,543.651428   C442.107452,538.009094 450.629608,539.170105 451.439758,532.272888   C446.508942,534.717529 442.744080,536.737427 439.927979,540.117126   C438.118378,542.288940 435.513214,543.645630 433.364166,542.090210   C428.320831,538.439880 421.692841,541.349609 416.209778,537.805664  M482.838684,228.609650   C485.886444,225.772308 488.230621,225.281250 490.315338,229.888351   C492.552673,234.832642 497.714508,233.663040 501.802032,234.097610   C505.261719,234.465454 505.315491,231.523727 505.407501,228.896805   C505.454285,227.562164 507.601410,228.325562 508.569305,226.939301   C500.011688,225.038315 492.690674,221.315536 484.906494,218.896179   C481.451752,217.822418 479.493713,215.808884 478.293640,211.774872   C477.191711,208.070648 471.157593,207.195053 469.834381,202.568207   C469.794769,202.429718 468.264648,202.593719 467.483093,202.810318   C459.682922,204.971893 452.205994,205.542938 445.269104,199.991302   C442.520081,197.791275 440.360291,198.701736 440.215820,203.055786   C446.729614,204.161636 449.381927,208.426849 449.171082,214.706268   C449.041107,218.577774 446.744690,221.519028 444.688843,224.550858   C442.971069,227.084152 440.292969,228.951828 439.040375,232.202209   C442.250763,231.991333 445.424225,230.864319 447.755646,231.810989   C453.538330,234.159042 455.190002,231.676376 455.877014,226.601791   C456.353088,223.085358 459.261047,222.835556 461.993073,222.940857   C464.999298,223.056702 465.685181,225.035141 465.634644,227.773117   C465.565155,231.533752 464.091888,235.208679 464.756592,239.158661   C468.542114,240.187836 470.233765,238.018921 471.312683,235.251587   C473.314514,230.117050 477.627686,229.234833 482.838684,228.609650  M387.459106,619.023804   C386.775970,621.422546 385.859497,623.784119 385.470306,626.229614   C385.009796,629.123352 385.006683,632.422729 389.021851,632.565613   C392.991211,632.706787 393.817291,629.863342 393.564667,626.394836   C393.250305,622.079285 394.944611,620.980042 398.877533,622.757935   C404.130615,625.132507 406.026947,631.249634 403.155762,636.691345   C401.795288,639.269775 399.781738,641.832764 403.767090,644.570374   C409.491882,638.294495 415.050140,632.045532 418.292633,624.334900   C421.011444,617.869690 418.683624,612.078369 412.933929,607.976868   C411.991821,607.304810 411.138641,606.492188 410.313354,605.674866   C405.387787,600.796814 400.575928,600.878540 395.820038,605.808777   C392.299805,609.458008 389.519653,613.548462 387.459106,619.023804  M533.700317,292.319305   C531.864990,295.118286 531.321899,297.955902 533.556030,301.527374   C537.640381,297.715698 543.427307,297.971436 547.673950,294.794891   C544.108215,288.894073 540.624634,288.205261 533.700317,292.319305  z"/>
<path fill="#000000" opacity="1.000000" stroke="none" d=" M580.993591,607.979553   C591.405518,605.995361 600.419006,600.276733 610.349548,597.325073   C610.201843,589.799927 619.495667,580.323486 626.876770,580.130798   C635.298157,579.910950 638.471130,581.612915 638.761597,586.718384   C650.507874,581.903931 662.148254,577.010803 673.880859,572.349854   C696.917725,563.198303 720.167236,554.604553 743.594299,546.508911   C747.328857,545.218323 749.089600,543.476013 748.726379,539.406128   C748.293091,534.551697 749.728333,529.514465 746.102234,525.088684   C744.885254,523.603271 745.346985,520.698364 747.506470,519.922363   C752.140869,518.256958 752.997620,514.022400 754.927490,510.440521   C756.133423,508.202209 756.751465,505.301575 760.097290,505.072906   C761.867310,506.458832 761.580261,508.347595 760.668457,509.593079   C755.525391,516.618835 757.543701,524.446106 757.958252,532.063293   C758.108398,534.822693 757.311890,537.685303 758.700134,540.824158   C769.292969,537.310913 779.823303,533.819885 790.352783,530.325867   C814.959106,522.160522 839.260071,512.849548 864.266296,506.184540   C884.762695,500.721619 905.260864,494.542542 926.515564,492.221680   C934.314087,491.370117 942.171875,491.294678 949.902466,492.950409   C953.688782,493.761353 957.819458,495.046204 958.760254,499.243958   C959.683777,503.364685 958.556946,507.488922 955.172668,510.617950   C950.723206,514.731812 945.348938,517.450806 940.184875,520.427551   C906.430786,539.884521 870.649231,554.546326 833.269775,565.428406   C823.692932,568.216492 814.313660,571.777100 804.210938,572.238159   C802.024963,572.337830 798.918213,573.261780 798.605591,569.885681   C798.325806,566.864685 801.154968,566.543640 803.519714,566.103882   C817.788940,563.450256 831.403015,559.089966 844.541382,552.660217   C861.222229,544.496826 878.513184,537.588806 895.398987,529.830261   C900.684021,527.401917 904.547180,523.150574 905.616516,517.094910   C906.430603,512.484314 905.021484,511.266296 900.320984,511.149109   C884.687317,510.759430 870.257263,515.735901 855.630371,520.357056   C835.326111,526.771912 814.938232,533.050842 794.287659,538.188354   C783.284790,540.925659 772.464539,543.980835 761.733093,547.554382   C758.549255,548.614563 757.230774,550.038879 757.070068,553.458557   C756.429260,567.086975 755.062866,580.692383 754.778015,594.323303   C754.484192,608.379272 753.916199,622.505737 756.600037,636.469299   C757.228027,639.736633 757.476562,643.088806 756.920959,646.416687   C756.662842,647.962585 756.054565,649.413452 754.146606,649.377136   C752.494141,649.345703 752.131165,647.994812 751.674805,646.684021   C745.698242,629.518188 744.424927,612.036804 746.880554,594.006165   C748.583435,581.502136 749.176147,568.826538 748.659424,556.160034   C748.620300,555.202026 748.326782,554.254333 748.153870,553.314514   C740.348755,554.291565 669.760132,580.452148 643.843689,593.006958   C644.078125,593.164795 644.330078,593.472168 644.506531,593.433594   C652.332275,591.725220 653.105164,592.367798 653.093323,600.341858   C653.083923,606.671875 653.197815,613.002075 653.189392,619.332092   C653.183838,623.507690 653.262695,627.578064 655.443665,631.411194   C657.159546,634.426880 656.704102,637.474060 653.257324,638.936462   C650.021484,640.309326 646.428894,641.450623 644.263428,636.990723   C643.754395,635.942322 643.137756,634.941895 642.687317,633.870239   C641.405945,630.822388 639.830627,630.080627 636.546631,631.807617   C627.369873,636.633423 619.208130,634.108582 614.249329,625.016418   C612.271362,621.389648 610.859863,617.424316 609.478516,613.511475   C608.427979,610.535889 608.515869,607.456482 611.265930,603.756042   C606.173889,605.670227 602.283020,607.044800 598.459290,608.586121   C584.689270,614.137085 570.292419,617.685608 556.137085,622.011353   C553.644958,622.773010 549.537415,622.592346 549.638367,626.193665   C549.731018,629.499268 552.469666,632.166626 555.434814,633.868286   C560.227478,636.618469 568.717468,635.499634 572.897827,631.899109   C574.210144,630.768799 574.866394,629.723206 573.742432,628.092468   C572.889893,626.855530 572.111755,625.531738 573.074158,624.053772   C573.896301,623.398682 574.842712,623.346130 575.493347,623.814819   C580.207886,627.210693 584.288757,631.302734 587.979919,635.763367   C588.891724,636.865234 588.276733,638.300049 587.859436,639.595581   C584.570557,649.805847 569.315735,661.953613 558.638916,662.829956   C550.808960,663.472717 541.056580,656.706970 536.619995,647.247253   C535.290833,644.413147 534.681213,641.248352 533.642761,638.269592   C532.335815,634.520752 530.620911,631.429016 525.705688,633.528503   C524.118835,634.206360 522.072998,634.354492 521.378662,632.425537   C520.570618,630.180847 522.814331,629.742493 524.282715,629.200500   C529.495300,627.276489 531.642944,623.630432 531.703430,618.075623   C531.804504,608.788757 535.001526,600.423706 540.882080,593.248474   C553.464478,577.895996 577.596558,581.122437 586.092346,599.112427   C588.527283,604.268494 585.374451,605.994751 580.917236,607.843140   C574.217224,609.344788 574.217224,609.344788 573.666382,603.353699   C573.314575,599.527588 567.475098,594.631592 563.543396,595.657593   C550.147522,599.153320 546.907532,597.057922 548.959534,613.823486   C549.170044,615.543701 548.530396,617.523804 550.507385,619.368408   C560.325500,614.997742 571.375366,613.503479 580.993591,607.979553  M619.691956,601.248901   C618.006226,601.776428 616.320435,602.304016 614.634705,602.831604   C618.410156,603.647827 619.324341,605.961182 619.160583,609.434082   C618.992188,613.006104 620.689575,616.203918 622.275269,619.307251   C623.910950,622.508423 626.428589,623.287598 629.765869,621.744934   C634.484558,619.563782 636.588806,616.003113 636.923218,610.783752   C637.268433,605.395508 633.675476,599.244629 639.428223,594.308411   C633.087341,596.533936 626.746460,598.759460 619.691956,601.248901  M924.977539,505.109314   C918.869568,503.072571 912.878723,503.956421 905.583923,505.420532   C913.598328,509.077148 911.807922,515.523071 912.274414,521.189941   C916.647034,519.573059 920.060059,517.168823 922.994568,514.256470   C925.270447,511.997650 928.025085,509.484955 924.977539,505.109314  z"/>
<path fill="#000000" opacity="1.000000" stroke="none" d=" M215.783386,344.986084   C215.774521,340.609009 216.782944,336.509186 212.259537,333.897095   C210.754089,333.027710 210.789169,330.660309 210.753860,328.795135   C210.678040,324.790680 210.871140,320.820740 211.561798,316.853577   C212.126541,313.609467 211.355911,311.598236 207.261581,312.789734   C203.215714,313.967102 199.175552,313.735199 196.352249,310.056061   C193.364120,306.162109 194.509186,302.083801 196.761200,298.363831   C203.359863,287.463867 211.120712,277.568878 221.866653,270.360321   C224.519531,268.580719 227.336975,267.391785 230.452728,266.525421   C235.387756,265.153137 240.392899,264.565582 244.565353,260.297211   C248.978043,255.783081 255.448639,258.492401 257.280792,264.773224   C260.025757,274.183411 259.620789,272.865143 268.650452,272.649902   C281.778168,272.336914 294.869324,270.649017 308.032837,271.602478   C310.481262,271.779785 313.062592,271.382751 315.440552,273.306793   C314.200287,276.648438 311.063538,277.013916 308.319427,277.726013   C297.818298,280.451080 287.527344,283.639069 278.003387,289.036591   C261.288391,298.509430 251.128738,312.933411 245.746246,331.056366   C245.465439,332.001801 245.351807,333.015991 245.305344,334.005005   C245.276047,334.628876 245.516739,335.265411 245.709808,336.283936   C255.396255,335.624084 264.956848,334.958099 274.519928,334.329132   C278.007477,334.099792 281.499573,333.861542 284.992096,333.814789   C286.947174,333.788666 289.301117,333.691284 289.650574,336.423157   C289.982941,339.021240 287.925446,339.659332 285.957184,340.328888   C273.499207,344.567017 261.360229,349.569824 249.471268,355.226044   C245.688309,357.025818 243.738449,359.286591 244.155212,363.637329   C244.487106,367.102203 244.081635,370.633301 244.328842,374.111908   C244.569290,377.495514 246.088257,379.094147 249.985474,378.141266   C264.531067,374.584808 279.211029,371.560364 293.695648,367.780914   C299.355133,366.304169 303.673309,369.354767 309.299438,369.653442   C306.859375,373.562195 303.374176,373.985596 300.400635,375.051880   C284.406006,380.787415 268.323639,386.389587 253.598068,394.985870   C241.960175,401.779602 230.841278,409.457916 219.281067,416.391907   C215.736191,418.518158 216.646484,421.729462 216.088440,424.712372   C213.674225,424.306732 214.507217,421.796234 213.092865,420.979889   C211.739838,420.175018 210.168594,421.928223 208.396072,420.189209   C215.432037,414.906738 212.322403,407.582703 212.140396,400.745880   C212.007416,395.750885 211.830658,390.756866 211.734909,385.761230   C211.710022,384.462982 211.476120,382.896820 212.833588,382.134827   C215.037872,380.897400 214.899292,378.862183 214.855942,376.895355   C214.624649,366.397827 214.962814,355.919922 215.783386,344.986084  z"/>
<path fill="#000000" opacity="1.000000" stroke="none" d=" M676.439453,334.500305   C674.103333,329.853027 671.911865,325.548798 669.838501,321.188446   C668.553589,318.486328 666.699768,317.612152 663.773987,318.470825   C657.869324,320.203796 651.953125,321.929626 645.967041,323.342224   C641.401917,324.419556 640.510559,326.945404 642.102356,331.403259   C646.247253,329.760956 650.411682,328.759857 654.636353,328.011810   C656.128479,327.747589 657.628906,327.552185 659.058350,328.185333   C660.506775,328.826904 661.628723,329.883698 661.626587,331.560822   C661.624512,333.148376 660.366760,333.791138 659.039062,334.208405   C654.717041,335.566711 650.282043,336.257263 645.756836,336.235809   C643.216125,336.223785 640.880615,336.321899 641.304077,339.837158   C641.664490,342.829590 643.689270,343.689453 646.315002,343.296600   C652.290527,342.402588 658.293213,342.983337 664.280151,342.851257   C666.302307,342.806610 669.038818,341.677002 670.164429,344.146179   C671.387268,346.828613 667.664551,347.227539 666.922607,349.466980   C667.508606,350.390564 668.185181,351.457031 669.027344,352.784424   C664.772217,356.229126 659.975830,357.898621 654.877319,358.704895   C651.606750,359.222137 650.156250,360.680450 649.814880,364.153534   C647.180908,390.953339 641.941711,417.477631 641.340332,444.496796   C641.313110,445.719452 641.779602,447.177368 640.300232,448.105927   C638.224792,447.212952 638.855347,445.307312 638.812988,443.804504   C638.315491,426.142700 639.354858,408.529755 640.374695,390.906311   C640.874451,382.270203 640.562012,373.588837 640.708008,364.929504   C640.757385,362.004700 639.272522,361.395508 636.664978,361.266785   C630.490356,360.962036 629.660461,360.056702 629.856995,354.108185   C630.197754,343.794312 630.738464,333.487091 631.078674,323.173187   C631.223633,318.779175 632.838623,315.786804 637.557678,315.306458   C647.195068,314.325378 651.528992,309.433899 651.163391,299.366302   C650.944824,293.347809 653.291504,287.294250 653.330200,281.125702   C653.342590,279.140228 654.484497,278.492493 655.940979,278.018860   C657.922180,277.374542 659.279297,277.977264 660.510925,279.855408   C667.081970,289.875977 673.805969,299.796265 680.484985,309.745941   C681.023193,310.547760 681.620361,311.309937 682.621277,312.681122   C687.227051,306.405640 690.373779,299.837311 693.986328,293.563751   C695.314453,291.257233 696.384766,288.768005 697.952698,286.642426   C699.985229,283.887146 702.402710,284.330750 703.239868,287.631348   C704.468140,292.473846 705.159851,297.447479 705.183594,302.451904   C705.238159,313.946167 705.136536,325.441132 705.141174,336.935791   C705.141724,338.351776 704.577148,339.868134 706.154907,341.968658   C713.096863,325.282166 723.380676,310.580963 726.506592,292.403015   C728.583252,292.712128 730.032349,294.180511 731.416260,296.180847   C741.319763,310.495575 748.632996,326.201721 756.035034,341.850403   C762.517700,355.555450 769.928955,368.761322 777.142029,382.076965   C778.149109,383.936005 779.386658,385.760773 778.818237,388.348541   C776.266541,388.230774 775.059692,386.363831 773.814026,384.744171   C765.739502,374.245209 759.560730,362.672241 754.709656,350.384583   C752.160828,343.928253 750.920715,342.942535 744.031555,343.017944   C737.368896,343.090851 730.706482,343.205292 724.044434,343.325043   C719.944763,343.398743 717.222839,344.406799 717.151733,349.586700   C717.062500,356.080536 710.266541,359.149811 704.466003,355.751587   C703.013611,356.691528 703.602722,358.509521 702.790588,359.740173   C701.991211,360.951385 701.322388,362.248718 700.087952,364.390137   C695.860657,356.611725 695.685425,348.798737 694.846497,341.246063   C693.992126,333.553894 693.802917,325.787842 693.278076,317.338837   C688.867065,320.426270 687.356934,324.767761 684.927856,328.369568   C683.535645,330.433716 682.366577,332.661560 681.238281,334.887329   C679.594910,338.129211 678.133728,337.109528 676.439453,334.500305  M660.902893,304.002533   C660.679810,303.428528 660.726501,302.665375 659.354187,302.452271   C659.636169,304.452484 657.582825,306.175629 659.285400,308.524323   C661.923218,308.084503 661.818054,306.490906 660.902893,304.002533  z"/>
<path fill="#000000" opacity="1.000000" stroke="none" d=" M274.373047,786.591736   C272.138245,779.862854 270.035461,773.512634 267.932678,767.162476   C268.576935,766.910767 269.221222,766.659058 269.865509,766.407349   C277.514038,776.944641 279.670929,789.952393 284.822144,801.750732   C283.692993,795.369507 282.706909,788.959045 281.410217,782.612061   C275.448822,753.433838 270.581146,724.047852 267.282471,694.481750   C264.915802,673.269287 259.386353,652.639648 257.242279,631.435669   C255.837097,617.538757 254.605148,603.602661 252.501526,589.805115   C250.885452,579.205261 247.704987,568.877319 247.213242,558.040527   C246.632629,545.245300 244.856628,532.462341 244.989716,519.688599   C245.119644,507.220093 250.235397,495.737244 255.350418,484.483704   C256.452026,482.060059 257.546844,479.606110 258.946960,477.353973   C260.070679,475.546417 260.850128,472.251678 263.875275,473.699219   C267.166229,475.273987 271.370209,476.798645 270.733643,481.746552   C267.924103,503.584839 267.843872,525.543823 267.921234,547.490356   C267.992126,567.590027 267.726685,587.687744 267.748932,607.779785   C267.773926,630.380371 268.315063,653.020264 270.652557,675.547119   C273.099243,699.126343 280.399292,721.727783 284.767639,744.923523   C286.614075,754.728210 288.872559,764.455017 290.913727,774.223572   C291.207001,775.626892 291.764496,777.108765 290.027039,778.981506   C286.073029,766.981567 283.793640,754.974548 279.992828,743.303528   C281.573364,752.597778 282.974213,761.926941 284.770508,771.179382   C288.952728,792.721069 293.213745,814.249023 297.691132,835.730835   C298.975952,841.895142 294.788147,847.969788 297.977783,854.197021   C284.667236,833.557678 282.111786,809.383850 274.373047,786.591736  z"/>
<path fill="#000000" opacity="1.000000" stroke="none" d=" M564.013062,322.144592   C564.370789,317.878906 564.592651,314.052673 565.056946,310.256042   C565.235107,308.798950 565.826660,307.170227 567.527283,306.808044   C569.082581,306.476868 570.846069,307.037323 571.409973,308.469086   C572.774597,311.934113 575.282227,312.568909 578.769592,311.684418   C579.535889,316.615723 580.727112,321.189240 584.087646,324.592377   C587.321045,327.866821 586.396362,332.700623 588.217346,337.534546   C591.353210,333.492279 590.748901,330.188354 590.611328,327.180237   C590.417908,322.953461 591.990540,319.862793 594.988098,317.080658   C609.351562,303.749512 620.554382,288.230499 627.655762,269.840393   C628.561829,267.494141 628.884277,263.703308 633.112976,264.800232   C636.245728,265.612854 638.382812,270.498413 637.027283,274.031708   C632.403748,286.082764 628.152588,298.321533 620.351135,308.861633   C617.875793,312.205963 615.512329,315.633423 613.112854,319.033539   C611.521729,321.288116 609.169922,323.363831 611.730225,326.469818   C612.449097,327.341919 611.929993,328.514679 611.171448,329.177704   C606.749268,333.043457 608.240417,338.060303 608.630127,342.735748   C609.031616,347.552612 609.691956,352.318390 608.657288,357.132111   C607.442322,362.784698 612.511597,361.151520 615.285400,362.511322   C615.293945,366.473450 613.256165,369.033966 609.862305,370.513550   C606.626160,371.924438 603.809692,373.604065 599.968994,370.316650   C593.405579,364.698700 586.240723,359.770447 579.958557,353.773895   C579.140076,352.992584 578.330688,352.057648 576.089417,352.257874   C577.952271,356.458344 576.679260,361.058472 579.390747,365.109711   C584.743347,373.107117 588.092041,381.927917 589.366089,391.499298   C589.705750,394.050507 590.400940,396.315338 592.967773,397.642975   C593.743042,398.043976 594.824219,399.514984 594.625671,399.886200   C591.949219,404.889496 596.384766,406.091248 598.932251,408.340515   C602.070679,411.111542 601.358948,415.433289 602.985657,418.831482   C603.181152,419.239929 602.665588,420.516205 602.369629,420.555176   C595.332275,421.481171 597.103821,427.818115 595.282166,431.930084   C595.034668,432.488831 594.605408,432.967041 594.350342,433.347931   C592.578674,433.442413 592.073608,432.464386 591.681396,431.278809   C584.523926,409.639984 576.058838,388.449280 567.234680,367.498291   C561.651550,354.242706 561.327148,341.527740 563.374329,328.056854   C563.649170,326.247925 563.777710,324.416687 564.013062,322.144592  z"/>
<path fill="#000000" opacity="1.000000" stroke="none" d=" M301.520996,404.566467   C276.093262,418.536194 251.155319,432.584198 227.964279,449.519318   C210.590179,462.206665 196.035522,477.590851 183.226486,494.793030   C178.662552,500.922211 173.416885,506.546021 168.437027,512.361633   C167.126572,513.892029 165.728226,515.346741 165.495514,517.453796   C165.338547,518.875122 165.095947,520.437439 163.286331,519.967041   C161.478439,519.497131 162.057312,517.855286 162.504196,516.617737   C165.160889,509.260345 167.841324,501.939423 172.511703,495.500336   C180.483170,484.509918 190.117203,475.266449 200.467499,466.494843   C211.997101,456.723755 221.115723,444.408112 233.124451,434.965240   C260.904449,413.120941 290.958710,395.756317 325.225342,386.318817   C328.624634,385.382599 329.410339,384.066650 329.073242,380.425079   C327.876343,367.495148 327.397156,354.507111 327.790985,341.506439   C327.984833,335.106506 328.566376,328.505920 320.001709,326.627533   C319.080048,326.425415 318.372101,325.497131 318.200043,323.662933   C329.266022,318.499023 332.669189,307.701019 335.589874,296.082855   C338.409454,297.968658 338.927765,300.219543 339.352509,302.382477   C342.750092,319.685669 345.529083,337.080200 347.370239,354.630035   C348.172180,362.274078 348.435913,369.904419 348.164276,377.559845   C348.044312,380.940491 349.292969,382.004547 352.640289,381.393860   C358.236542,380.372925 363.923920,380.556305 369.584839,380.759979   C372.213135,380.854523 374.896545,381.026550 376.618652,383.461853   C375.659485,385.679016 373.781921,385.245392 372.219788,385.289215   C364.997833,385.491943 358.119629,387.522949 351.133850,389.026489   C348.210388,389.655670 346.436646,391.406158 346.615936,394.118896   C347.312256,404.654510 339.913055,406.871033 331.729065,408.873047   C331.233032,403.849670 332.486786,398.627747 329.934723,393.353973   C320.028595,395.702942 310.960175,400.111389 301.520996,404.566467  M176.753464,495.211548   C175.365005,497.290985 173.976562,499.370392 172.588104,501.449799   C172.892746,501.647247 173.197372,501.844696 173.501999,502.042145   C179.062561,495.171448 184.623123,488.300751 190.183685,481.430054   C184.544724,484.675659 180.972427,489.762909 176.753464,495.211548  z"/>
<path fill="#000000" opacity="1.000000" stroke="none" d=" M522.281982,493.002441   C522.447876,500.784180 520.487000,507.757416 517.638733,514.270081   C509.808624,532.174011 507.710571,550.904907 507.391327,570.215881   C507.025848,592.322632 505.242859,614.404297 504.762268,636.511780   C504.586914,644.578186 507.088074,652.520142 510.160156,660.097107   C511.548706,663.521973 512.669922,666.998535 511.865204,670.772339   C511.152466,674.114502 509.599457,677.103333 505.823029,676.951660   C502.144379,676.803833 501.076141,673.477905 500.827820,670.449463   C500.298370,663.991760 499.274658,657.554993 499.638824,651.036560   C499.729401,649.415039 499.933868,647.741577 498.995422,645.832825   C492.295135,649.221130 486.070740,653.237183 478.604980,654.589417   C464.099884,657.216370 453.338043,651.982971 447.125916,638.776550   C441.459167,626.729492 444.820587,613.634155 455.950714,604.947937   C462.671661,599.702759 470.263794,595.848145 477.710571,591.778748   C481.489197,589.713928 485.216766,591.883972 488.912079,592.197021   C497.759277,592.946350 500.338531,589.420105 499.662201,582.754456   C498.146332,567.815125 501.863159,553.374634 503.316528,538.714844   C503.872498,533.106934 503.827026,527.400940 503.578857,521.760620   C503.172211,512.517639 506.890564,504.580200 510.822998,496.655640   C513.048096,492.171631 515.052856,487.616882 515.992371,482.655029   C516.244019,481.326111 516.695862,479.911072 518.418823,479.992920   C519.984619,480.067322 520.778015,481.339172 520.998474,482.664642   C521.542603,485.935394 521.868713,489.242401 522.281982,493.002441  M469.223633,609.707886   C462.579834,616.246826 458.483734,623.699646 460.861053,633.405945   C462.796356,641.307434 466.954895,643.541016 474.506104,640.616394   C479.168304,638.810669 483.742096,636.710266 488.867126,636.763000   C492.563721,636.801086 494.098267,634.954651 494.824005,631.457947   C496.025024,625.671326 495.500793,619.839417 495.889709,614.038696   C496.068878,611.366211 494.735748,610.363098 492.269348,609.618347   C484.911469,607.396667 477.409302,612.110168 470.130280,608.960754   C470.050842,608.926331 469.865326,609.136963 469.223633,609.707886  z"/>
<path fill="#000000" opacity="1.000000" stroke="none" d=" M671.456909,630.046997   C679.258850,632.081360 686.624390,634.659729 692.716187,639.848755   C694.336853,641.229187 695.893982,642.557434 697.974976,641.033203   C700.250305,639.366760 698.756958,637.322021 698.011597,635.641846   C693.720947,625.969666 686.743835,618.394348 678.662231,611.814148   C674.023376,608.037170 673.139404,605.691589 677.009033,601.070190   C682.498352,594.514343 688.037964,587.876831 696.464783,582.866150   C691.183289,583.912170 687.892029,587.666199 683.231689,587.701233   C683.262573,585.652710 684.694763,585.250549 685.789917,584.605347   C692.535156,580.631409 699.294495,576.681396 706.060852,572.743469   C707.760803,571.754150 709.377075,570.390747 711.390381,572.440002   C712.698608,573.771667 713.763123,572.225525 714.883911,571.679443   C716.712463,570.788513 718.206787,568.741089 720.725769,569.883972   C721.322144,572.422852 719.324280,573.573059 717.994507,574.833862   C712.766296,579.791138 712.087219,585.315735 715.356628,591.577087   C717.203186,595.113525 719.247681,598.599792 720.603455,602.326782   C722.585022,607.773804 720.505371,611.998108 715.243652,613.932434   C713.745300,610.491699 712.373840,606.959839 710.672974,603.594360   C709.792175,601.851562 708.550171,600.143372 707.075500,598.882690   C704.784546,596.924133 702.813721,597.163147 702.096741,600.579529   C700.018311,610.482849 701.431458,614.819641 707.627136,619.150696   C719.474915,627.432739 721.300110,650.259644 701.504028,659.835022   C695.693420,662.645569 686.196899,658.811829 684.549255,652.541321   C682.346558,644.158020 678.890991,636.964478 671.511536,632.029175   C671.157837,631.792603 671.278137,630.847351 671.456909,630.046997  z"/>
<path fill="#000000" opacity="1.000000" stroke="none" d=" M443.914062,804.964355   C440.376678,768.832336 440.534790,733.033813 439.755615,697.234558   C443.473419,704.238342 443.339905,711.860474 444.051453,719.275757   C445.975311,739.324219 446.064117,759.481323 447.257172,779.571106   C448.242554,796.164612 449.908234,812.724304 451.578003,829.268188   C452.748383,840.864136 452.936157,852.396912 452.135529,864.038696   C451.384583,874.958008 453.658478,885.825928 453.681458,896.803955   C453.697723,904.569397 444.680115,918.388123 437.040527,920.014832   C432.913483,920.893677 429.745331,919.370483 427.594360,916.008911   C418.075287,901.132751 415.100525,885.399048 421.785126,868.519775   C422.212341,867.441040 422.649719,866.312256 423.341003,865.403564   C424.732788,863.574402 426.303101,861.881104 428.881042,858.867859   C428.443848,862.604126 428.670807,865.102600 427.816589,867.150146   C425.027191,873.836304 426.326294,880.502869 427.307129,887.200562   C428.459900,895.072449 433.275208,900.164307 440.137756,901.077026   C443.529205,901.528015 445.386749,900.507385 446.025665,896.843628   C446.831360,892.223267 446.910278,887.626099 446.977478,882.969666   C447.351440,857.063660 447.698914,831.166077 443.914062,804.964355  z"/>
<path fill="#000000" opacity="1.000000" stroke="none" d=" M357.648560,294.137817   C357.481903,291.341492 357.277740,289.020538 357.182312,286.695129   C357.049164,283.452545 356.255096,280.904083 352.371552,280.409576   C350.930328,280.226044 349.429962,279.206787 349.220490,277.554047   C348.972229,275.595459 350.763275,275.196808 352.130310,274.711670   C356.465881,273.173065 359.975861,270.435791 363.373291,267.430756   C367.947906,263.384460 373.436066,265.114899 373.867371,271.209717   C374.759216,283.812836 377.057739,296.347229 376.295227,309.035706   C376.095123,312.365845 376.473145,315.287598 378.438416,317.997375   C381.040039,321.584564 381.708221,325.402832 380.469055,329.800659   C378.969635,335.122162 379.441193,340.712036 378.991821,346.180328   C378.728119,349.388519 378.297546,352.854401 373.438904,351.286041   C373.141815,351.190094 372.776611,351.279419 372.446564,351.314972   C360.656128,352.584839 358.586365,350.782288 358.890503,339.028595   C359.274261,324.197083 358.826019,309.396027 357.648560,294.137817  z"/>
<path fill="#000000" opacity="1.000000" stroke="none" d=" M428.669617,725.000916   C428.666138,710.445557 428.666138,696.389893 428.666138,682.317261   C430.236633,682.383728 430.042084,683.765869 430.183472,684.843628   C434.553711,718.157471 433.927765,751.554077 431.659851,784.959839   C430.754211,798.299255 431.795990,811.553284 432.702209,824.825745   C433.061676,830.090515 433.261261,835.315125 431.187256,840.388855   C429.041229,839.815918 429.165405,838.273926 428.993713,837.104431   C425.812042,815.432495 425.959015,793.637817 427.233093,771.867493   C428.137451,756.414734 428.860413,740.977539 428.669617,725.000916  z"/>
<path fill="#000000" opacity="1.000000" stroke="none" d=" M529.634155,337.958069   C530.178650,335.598755 530.568665,333.638092 531.169861,331.744476   C531.565125,330.499481 532.113098,329.111145 533.773499,329.134796   C535.217834,329.155426 536.296997,329.992188 536.883423,331.285858   C537.777283,333.257690 538.195007,335.202820 537.873413,337.519989   C536.912781,344.442017 536.954590,351.416626 537.922668,358.358459   C538.571899,363.014008 539.295105,367.606537 544.011536,370.245331   C545.386536,371.014557 545.584290,372.433929 544.358215,373.594330   C540.468872,377.275116 535.330078,376.388519 532.523254,371.569489   C530.304504,367.759979 529.178833,363.483856 528.919067,359.221680   C528.496582,352.290039 527.872498,345.280182 529.634155,337.958069  z"/>
<path fill="#000000" opacity="1.000000" stroke="none" d=" M406.766663,302.425659   C405.803131,306.663483 403.308777,309.326263 400.079590,311.238495   C396.926361,313.105774 393.583801,313.140228 390.932312,310.329437   C388.233582,307.468506 388.343811,304.214752 391.023163,301.372009   C395.892761,296.205505 398.679047,289.919373 400.649811,282.137817   C406.784210,288.474640 405.988220,295.515930 406.766663,302.425659  z"/>
<path fill="#000000" opacity="1.000000" stroke="none" d=" M405.962585,366.391357   C405.388641,368.107330 404.709229,369.584564 403.097443,368.852386   C400.852142,367.832336 398.548370,366.514832 397.968781,363.816833   C397.243958,360.442688 396.587555,357.135468 397.162354,353.520660   C398.331757,346.166504 398.883850,338.719086 398.725525,331.242126   C398.694672,329.785614 398.644104,327.941345 400.675690,327.796539   C402.600800,327.659332 403.104828,329.270935 403.188263,330.839661   C403.812653,342.577942 405.997131,354.188934 405.962585,366.391357  z"/>
<path fill="#000000" opacity="1.000000" stroke="none" d=" M645.300293,578.141724   C646.602539,574.524414 647.354187,571.027893 649.855103,568.405396   C650.967407,567.238953 652.182312,565.558105 654.029846,566.884399   C655.621765,568.027161 654.690979,569.695312 653.989136,570.947937   C652.372925,573.832336 650.513977,576.553650 648.990906,579.525879   C647.467957,582.497925 645.915955,581.093567 645.300293,578.141724  z"/>
<path fill="#000000" opacity="1.000000" stroke="none" d=" M948.001709,485.027954   C948.994324,485.233246 949.611023,485.415558 950.227783,485.597870   C950.248230,486.066925 950.268738,486.535950 950.289185,487.005005   C939.452576,486.818420 928.701172,487.605072 917.938477,488.408752   C927.608948,485.368896 937.561890,484.727386 948.001709,485.027954  z"/>
<path fill="#000000" opacity="1.000000" stroke="none" d=" M542.486450,329.512238   C539.633057,324.529968 544.188538,323.943634 546.846924,320.979553   C547.032104,325.422577 548.137817,329.111908 542.486450,329.512238  z"/>
</svg>